<?xml version="1.0" encoding="utf-8"?>
<!-- Generator: Adobe Illustrator 28.0.0, SVG Export Plug-In . SVG Version: 6.00 Build 0)  -->
<svg version="1.1" id="Ñëîé_5" xmlns="http://www.w3.org/2000/svg" xmlns:xlink="http://www.w3.org/1999/xlink" x="0px" y="0px"
	 viewBox="0 0 110.85 85.11" style="enable-background:new 0 0 110.85 85.11;" xml:space="preserve">
<style type="text/css">
	.st0{fill:#A51126;}
	.st1{fill:#D20F22;}
	.st2{fill:#F7F7F7;}
	.st3{fill:url(#SVGID_1_);}
	.st4{fill:#EEFDFF;}
	.st5{fill:url(#SVGID_00000114055357610797810720000000820462935113745552_);}
	.st6{fill:url(#SVGID_00000083063742177433350440000018395457173522711989_);}
	.st7{fill:url(#SVGID_00000038375023136188433190000015214349195209499541_);}
	.st8{fill:#FFFFFF;}
	.st9{fill:#F2F2F2;}
	.st10{fill:#680518;}
	.st11{fill:url(#SVGID_00000012434860114856832710000006361057738666257808_);}
	.st12{fill:url(#SVGID_00000159459789167666074500000001745320672810792111_);}
	.st13{fill:url(#SVGID_00000055687419942618025800000014687777155264364702_);}
	.st14{fill:url(#SVGID_00000016788111088500722370000005821449220355170962_);}
	.st15{fill:url(#SVGID_00000067231523696899573220000006873525456903795371_);}
	.st16{fill:url(#SVGID_00000003092492626661709370000016056027999172772253_);}
	.st17{fill:url(#SVGID_00000068643777353244043900000013243635888207057842_);}
	.st18{fill:url(#SVGID_00000115474687820748988920000017320185303633219991_);}
</style>
<g>
	<path class="st0" d="M39.07,33.48H16.19C7.29,33.48,0,26.2,0,17.3v0C0,8.39,7.29,1.11,16.19,1.11h22.88
		c8.9,0,16.19,7.29,16.19,16.19v0C55.25,26.2,47.97,33.48,39.07,33.48z"/>
	<path class="st0" d="M48.59,28.67c0,0,0.71,9.54,4.68,11.79c0,0-12.74-2.2-15.88-6.97C34.26,28.71,48.59,28.67,48.59,28.67z"/>
	<path class="st0" d="M61.28,56.81c7.85,2.15,9.71,1.55,11.11,3.65c0.16,0.24,0.98,1.48,0.82,3.06c-0.13,1.26-0.83,2.24-1.28,2.67
		c-2.69,2.6-10.09-0.58-14.33-4.07c-0.92-0.76-3.4-2.8-2.9-4.24c0.2-0.59,0.84-0.89,1.3-1.09C58.01,55.88,60.1,56.48,61.28,56.81z"
		/>
	<rect x="83.85" y="4.03" class="st1" width="1.67" height="10.97"/>
	<path class="st1" d="M88.4,21.06h-7.42c-1.99,0-3.6-1.61-3.6-3.6v0c0-1.99,1.61-3.6,3.6-3.6h7.42c1.99,0,3.6,1.61,3.6,3.6v0
		C92,19.44,90.39,21.06,88.4,21.06z"/>
	<path class="st1" d="M96.53,57.09H72.84c-7.88,0-14.32-6.44-14.32-14.32v0C58.53,28.76,69.99,17.3,84,17.3h1.38
		c14.01,0,25.48,11.46,25.48,25.48v0C110.85,50.68,104.44,57.09,96.53,57.09z"/>
	<path class="st2" d="M102.62,43.88L102.62,43.88c-0.68,0.34-1.45,0.52-2.23,0.52h-31.4c-0.78,0-1.55-0.18-2.23-0.52l0,0
		c-1.68-0.83-2.63-2.51-2.39-4.23l0.02-0.13c0.8-5.83,6.09-10.32,12.56-10.65c2.74-0.14,5.62-0.22,8.62-0.2
		c2.35,0.01,4.62,0.08,6.81,0.2c6.5,0.34,11.82,4.8,12.63,10.66c0.01,0.04,0.01,0.08,0.02,0.13
		C105.25,41.37,104.3,43.05,102.62,43.88z"/>
	<g>
		<radialGradient id="SVGID_1_" cx="76.4125" cy="37.1923" r="5.8601" gradientUnits="userSpaceOnUse">
			<stop  offset="0.1296" style="stop-color:#3280FC"/>
			<stop  offset="1" style="stop-color:#000000"/>
		</radialGradient>
		<circle class="st3" cx="76.41" cy="37.19" r="5.92"/>
		<g>
			<circle class="st4" cx="76.41" cy="37.19" r="4.25"/>
		</g>
		<g>
			
				<linearGradient id="SVGID_00000124867849241675459200000011532510774806450316_" gradientUnits="userSpaceOnUse" x1="72.8428" y1="37.1923" x2="79.9822" y2="37.1923">
				<stop  offset="0" style="stop-color:#030D14"/>
				<stop  offset="1" style="stop-color:#0B2F45"/>
			</linearGradient>
			<circle style="fill:url(#SVGID_00000124867849241675459200000011532510774806450316_);" cx="76.41" cy="37.19" r="3.57"/>
		</g>
		<g>
			<path class="st4" d="M78.7,36.27c0,0.73-0.59,1.32-1.32,1.32c-0.73,0-1.32-0.59-1.32-1.32s0.59-1.32,1.32-1.32
				C78.11,34.94,78.7,35.54,78.7,36.27z"/>
		</g>
		<g>
			<circle class="st4" cx="75.88" cy="39.93" r="0.53"/>
		</g>
		<g>
			<path class="st4" d="M74.58,39.14c0,0.15-0.12,0.26-0.26,0.26c-0.15,0-0.26-0.12-0.26-0.26c0-0.15,0.12-0.26,0.26-0.26
				C74.46,38.87,74.58,38.99,74.58,39.14z"/>
		</g>
	</g>
	<g>
		
			<radialGradient id="SVGID_00000120533122992137038310000010640029499494648463_" cx="92.4088" cy="37.1923" r="5.8601" gradientUnits="userSpaceOnUse">
			<stop  offset="0.1296" style="stop-color:#3280FC"/>
			<stop  offset="1" style="stop-color:#000000"/>
		</radialGradient>
		<circle style="fill:url(#SVGID_00000120533122992137038310000010640029499494648463_);" cx="92.41" cy="37.19" r="5.92"/>
		<g>
			<circle class="st4" cx="92.41" cy="37.19" r="4.25"/>
		</g>
		<g>
			
				<linearGradient id="SVGID_00000055685644133573492340000009971619177341666962_" gradientUnits="userSpaceOnUse" x1="88.8391" y1="37.1923" x2="95.9785" y2="37.1923">
				<stop  offset="0" style="stop-color:#030D14"/>
				<stop  offset="1" style="stop-color:#0B2F45"/>
			</linearGradient>
			<circle style="fill:url(#SVGID_00000055685644133573492340000009971619177341666962_);" cx="92.41" cy="37.19" r="3.57"/>
		</g>
		<g>
			<path class="st4" d="M94.7,36.27c0,0.73-0.59,1.32-1.32,1.32c-0.73,0-1.32-0.59-1.32-1.32s0.59-1.32,1.32-1.32
				C94.1,34.94,94.7,35.54,94.7,36.27z"/>
		</g>
		<g>
			<circle class="st4" cx="91.88" cy="39.93" r="0.53"/>
		</g>
		<g>
			<path class="st4" d="M90.57,39.14c0,0.15-0.12,0.26-0.26,0.26c-0.15,0-0.26-0.12-0.26-0.26c0-0.15,0.12-0.26,0.26-0.26
				C90.45,38.87,90.57,38.99,90.57,39.14z"/>
		</g>
	</g>
	<path class="st1" d="M86.83,3.3c0,1.18-0.96,2.14-2.14,2.14c-1.18,0-2.14-0.96-2.14-2.14c0-1.18,0.96-2.14,2.14-2.14
		C85.87,1.16,86.83,2.12,86.83,3.3z"/>
	<path class="st8" d="M86.18,2.46c0,0.36-0.29,0.65-0.65,0.65c-0.36,0-0.65-0.29-0.65-0.65c0-0.36,0.29-0.65,0.65-0.65
		C85.88,1.81,86.18,2.1,86.18,2.46z"/>
	<path class="st8" d="M103.12,24.16c0.03,1-0.79,2.2-1.72,2.3c-0.88,0.1-1.58-0.8-2.3-1.72c-0.71-0.91-2.27-3.25-1.65-3.91
		C98.27,19.96,103.06,21.8,103.12,24.16z"/>
	<circle class="st8" cx="95.12" cy="19.61" r="0.74"/>
	<path class="st8" d="M103.02,38.03c-0.24,0.17-1.9-3.22-6.37-6.16c-1.57-1.03-3.12-1.77-3.03-1.98c0.09-0.22,1.84,0.19,3.24,0.84
		C101.31,32.78,103.3,37.83,103.02,38.03z"/>
	<path class="st8" d="M91.58,15.98c-0.05,0.01-0.09-0.31-0.35-0.79c0,0-0.12-0.23-0.26-0.42c-0.45-0.62-1.97-0.6-2.09-0.6
		c-2.37,0.02-3.89-0.13-3.89-0.12c0,0.01,1.11-0.01,1.92-0.03c2.3-0.05,3.66-0.17,4.25,0.44c0.24,0.26,0.37,0.59,0.37,0.59
		C91.7,15.51,91.64,15.97,91.58,15.98z"/>
	<path class="st4" d="M91.08,46.94c-0.06,0.57-0.53,1-1.1,1.06l-7.84,0.76c-0.57,0.05-1.11-0.28-1.28-0.83
		c-0.07-0.24-0.13-0.49-0.17-0.75c-0.01-0.07,0.01-0.14,0.05-0.2c0.04-0.06,0.11-0.09,0.18-0.1l9.9-0.95
		c0.07-0.01,0.14,0.02,0.19,0.06c0.05,0.05,0.09,0.11,0.09,0.18C91.12,46.43,91.11,46.69,91.08,46.94z"/>
	<path class="st0" d="M91.09,46.94c-0.25,2.43-2.18,4.43-4.71,4.67c-2.49,0.24-4.74-1.3-5.48-3.59c0.2,0.49,0.71,0.79,1.25,0.73
		L89.99,48C90.56,47.94,91.03,47.51,91.09,46.94z"/>
	<path class="st9" d="M103.44,64.56c0,0.07,0,0.14,0,0.21c-0.03,0.66-0.18,1.15-0.25,1.38c-2.16,6.6-3.45,10.07-5.27,12.89
		c-0.31,0.49-0.64,0.95-1,1.41c-0.46,0.61-0.97,1.21-1.54,1.82c-1.25,1.36-3.15,1.98-3.76,2.19c-2.23,0.79-4.21,0.65-5.52,0.66
		h-0.23c-1.32-0.01-3.29,0.13-5.52-0.66c-0.61-0.21-2.51-0.83-3.76-2.19c-3.45-3.75-4.77-6.87-7.8-16.12
		c-0.07-0.21-0.22-0.67-0.25-1.29c-0.01-0.18-0.01-0.36,0-0.54c0.07-1.11,0.51-2.19,1.31-3.18c1.36-1.7,3.47-2.63,5.65-2.64
		l10.49-0.04l10.3-0.04c2.22-0.01,4.38,0.92,5.79,2.64c0.68,0.83,1.12,1.73,1.28,2.66c0.02,0.13,0.04,0.27,0.05,0.4
		C103.43,64.26,103.44,64.41,103.44,64.56z"/>
	<path class="st0" d="M85.99,58.45L75.5,58.5c-2.18,0.01-4.28,0.94-5.65,2.64c-0.8,0.99-1.24,2.07-1.31,3.18
		c0.05-1.13,0.52-2.25,1.35-3.26c1.41-1.72,3.57-2.65,5.79-2.64L85.99,58.45z"/>
	<path class="st1" d="M96.42,73.91c-0.15-8.14-1.25-9.75,0.37-11.69c0.19-0.22,1.14-1.36,2.71-1.65c1.25-0.23,2.38,0.17,2.92,0.47
		c3.26,1.85,2.29,9.85,0.15,14.9c-0.47,1.1-1.72,4.05-3.25,3.98c-0.63-0.03-1.09-0.56-1.41-0.94
		C96.46,77.31,96.44,75.14,96.42,73.91z"/>
	<path class="st0" d="M97.92,79.03c-0.31,0.49-0.64,0.95-1,1.41c-0.11-0.12-0.21-0.23-0.3-0.34c-1.44-1.68-1.45-3.85-1.47-5.08
		c-0.15-8.14-1.26-9.75,0.37-11.68c0.12-0.14,0.55-0.66,1.26-1.09c-1.6,1.93-0.51,3.55-0.36,11.67c0.02,1.23,0.04,3.4,1.47,5.09
		C97.9,79.01,97.91,79.01,97.92,79.03z"/>
	<path class="st8" d="M102.51,67.13c-0.05-0.87-0.21-1.52-0.54-2.8c-0.43-1.68-0.97-2.5-0.62-2.83c0.23-0.21,0.68-0.07,0.78-0.04
		c1.54,0.49,2.01,3.38,1.95,5.18c-0.04,1.11-0.31,2.34-0.72,2.4c-0.06,0.01-0.22,0-0.34-0.1C102.58,68.55,102.55,67.8,102.51,67.13z
		"/>
	<path class="st8" d="M103.57,70.22c0,0.18-0.14,0.32-0.32,0.32c-0.18,0-0.32-0.14-0.32-0.32c0-0.18,0.14-0.32,0.32-0.32
		C103.43,69.9,103.57,70.04,103.57,70.22z"/>
</g>
<path class="st8" d="M53.22,13.28c-0.36,0.27-2.86-4.58-9.12-7.9c-3.52-1.87-6.39-2.28-6.31-2.62c0.09-0.4,4.19-0.55,7.91,1.31
	C51.28,6.87,53.61,12.99,53.22,13.28z"/>
<circle class="st8" cx="53.69" cy="15.15" r="0.43"/>
<path class="st8" d="M49.34,35.57c0.49,1.37,1,2.17,0.88,2.25c-0.13,0.08-1.01-0.79-1.54-1.93c-0.91-2-0.42-4.17-0.23-4.18
	C48.62,31.7,48.5,33.23,49.34,35.57z"/>
<g>
	<g>
		<g>
			<path class="st10" d="M9.12,13.94c0.25,0.23,0.37,0.51,0.37,0.85c0,0.34-0.12,0.63-0.37,0.87c-0.25,0.23-0.56,0.35-0.94,0.35
				c-0.39,0-0.71-0.12-0.95-0.35c-0.25-0.23-0.37-0.52-0.37-0.87c0-0.34,0.12-0.62,0.37-0.85c0.25-0.23,0.56-0.34,0.95-0.34
				C8.56,13.6,8.88,13.71,9.12,13.94z M7.21,16.91h1.88l0.26,6.2H6.95L7.21,16.91z"/>
			<path class="st10" d="M19.38,11.92V21h-2.21v-3.74h-3.44V21h-2.21v-9.09h2.21v3.56h3.44v-3.56H19.38z"/>
			<path class="st10" d="M22.92,20.5c-0.71-0.4-1.28-0.95-1.7-1.66c-0.42-0.71-0.63-1.51-0.63-2.4c0-0.89,0.21-1.69,0.63-2.39
				c0.42-0.71,0.98-1.26,1.7-1.66c0.71-0.4,1.5-0.6,2.35-0.6s1.64,0.2,2.35,0.6c0.71,0.4,1.27,0.95,1.68,1.66
				c0.41,0.71,0.61,1.51,0.61,2.39c0,0.89-0.21,1.69-0.62,2.4c-0.41,0.71-0.98,1.27-1.68,1.66c-0.71,0.4-1.49,0.6-2.34,0.6
				S23.63,20.9,22.92,20.5z M27.01,18.35c0.44-0.48,0.65-1.12,0.65-1.92c0-0.8-0.22-1.44-0.65-1.92c-0.44-0.48-1.02-0.72-1.74-0.72
				c-0.73,0-1.32,0.24-1.75,0.71c-0.44,0.47-0.65,1.12-0.65,1.93c0,0.8,0.22,1.44,0.65,1.92c0.44,0.48,1.02,0.72,1.75,0.72
				C26,19.08,26.58,18.83,27.01,18.35z"/>
			<path class="st10" d="M33.36,19.3h2.9V21h-5.11v-9.09h2.21V19.3z"/>
			<path class="st10" d="M42.98,19.4h-3.39L39.04,21h-2.32l3.29-9.09h2.56L45.87,21h-2.34L42.98,19.4z M42.41,17.69l-1.13-3.33
				l-1.11,3.33H42.41z"/>
			<path class="st10" d="M47.66,20.76c-0.25-0.23-0.37-0.51-0.37-0.85c0-0.35,0.12-0.63,0.37-0.87c0.25-0.23,0.56-0.35,0.95-0.35
				c0.38,0,0.69,0.12,0.94,0.35c0.25,0.23,0.37,0.52,0.37,0.87c0,0.34-0.12,0.62-0.37,0.85c-0.25,0.23-0.56,0.34-0.94,0.34
				C48.22,21.11,47.9,20.99,47.66,20.76z M49.77,11.59l-0.26,6.2h-1.88l-0.26-6.2H49.77z"/>
		</g>
	</g>
	<g>
		<path class="st8" d="M8.36,13.88c0.25,0.23,0.37,0.51,0.37,0.85c0,0.34-0.12,0.63-0.37,0.87c-0.25,0.23-0.56,0.35-0.94,0.35
			c-0.39,0-0.71-0.12-0.95-0.35c-0.25-0.23-0.37-0.52-0.37-0.87c0-0.34,0.12-0.62,0.37-0.85c0.25-0.23,0.56-0.34,0.95-0.34
			C7.8,13.54,8.11,13.66,8.36,13.88z M6.45,16.86h1.88l0.26,6.2H6.19L6.45,16.86z"/>
		<path class="st8" d="M18.62,11.86v9.09H16.4V17.2h-3.44v3.74h-2.21v-9.09h2.21v3.56h3.44v-3.56H18.62z"/>
		<path class="st8" d="M22.16,20.44c-0.71-0.4-1.28-0.95-1.7-1.66c-0.42-0.71-0.63-1.51-0.63-2.4c0-0.89,0.21-1.69,0.63-2.39
			c0.42-0.71,0.98-1.26,1.7-1.66c0.71-0.4,1.5-0.6,2.35-0.6s1.64,0.2,2.35,0.6c0.71,0.4,1.27,0.95,1.68,1.66
			c0.41,0.71,0.61,1.51,0.61,2.39c0,0.89-0.21,1.69-0.62,2.4c-0.41,0.71-0.98,1.27-1.68,1.66c-0.71,0.4-1.49,0.6-2.34,0.6
			S22.87,20.84,22.16,20.44z M26.25,18.29c0.44-0.48,0.65-1.12,0.65-1.92c0-0.8-0.22-1.44-0.65-1.92c-0.44-0.48-1.02-0.72-1.74-0.72
			c-0.73,0-1.32,0.24-1.75,0.71c-0.44,0.47-0.65,1.12-0.65,1.93c0,0.8,0.22,1.44,0.65,1.92c0.44,0.48,1.02,0.72,1.75,0.72
			C25.23,19.02,25.81,18.78,26.25,18.29z"/>
		<path class="st8" d="M32.6,19.24h2.9v1.71h-5.11v-9.09h2.21V19.24z"/>
		<path class="st8" d="M42.22,19.34h-3.39l-0.54,1.6h-2.32l3.29-9.09h2.56l3.29,9.09h-2.34L42.22,19.34z M41.65,17.63l-1.13-3.33
			l-1.11,3.33H41.65z"/>
		<path class="st8" d="M46.89,20.71c-0.25-0.23-0.37-0.51-0.37-0.85c0-0.35,0.12-0.63,0.37-0.87c0.25-0.23,0.56-0.35,0.95-0.35
			c0.38,0,0.69,0.12,0.94,0.35c0.25,0.23,0.37,0.52,0.37,0.87c0,0.34-0.12,0.62-0.37,0.85c-0.25,0.23-0.56,0.34-0.94,0.34
			C47.46,21.05,47.14,20.94,46.89,20.71z M49.01,11.54l-0.26,6.2h-1.88l-0.26-6.2H49.01z"/>
	</g>
</g>
</svg>
